PathFileType	4	(X/Y/Z)	OpenSim_Sub03_EMGStiffKnee_Gyro.trc
DataRate	CameraRate	NumFrames	NumMarkers	Units	OrigDataRate	OrigDataStartFrame	OrigNumFrames
100	100	34	8	m	100	4749	7597
Frame#	Time	torso_imu_offset_imu	pelvis_imu_offset_imu	tibia_r_imu_offset_imu	femur_r_imu_offset_imu	tibia_l_imu_offset_imu	femur_l_imu_offset_imu	toes_r_imu_offset_imu	toes_l_imu_offset_imu
				X1	Y1	Z1	X2	Y2	Z2	X3	Y3	Z3	X4	Y4	Z4	X5	Y5	Z5	X6	Y6	Z6	X7	Y7	Z7	X8		Y8	Z8	

4749	47.48000000	-0.42092063	0.33304366	-0.49248013	-0.38010992	0.02902348	-0.21582529	0.09193981	-0.19865816	-2.04095905	-0.31085333	0.64745576	0.68712437	-1.64893481	0.33347276	0.70027963	-0.27296732	-0.21908272	0.08937116	0.65956889	-1.98715477	-1.56042335	-1.83779385	-0.73700268	0.61000031
4750	47.49000000	-0.23946183	0.30668176	-0.42852541	-0.14800322	-0.13146959	-0.67606549	0.10535709	-0.34388439	-2.06043531	-0.27557832	0.65201611	0.93220479	-2.42247591	0.48516220	1.44264710	-0.47590493	-0.35495287	0.03120878	0.74095472	-2.26021676	-1.96567103	-0.91519350	-0.09317001	0.27934612
4751	47.50000000	-0.08718020	0.26718700	-0.31495921	-0.03807456	-0.28723849	-0.93446406	-0.00239333	-0.52879052	-2.11611195	-0.25674541	0.66718751	1.21875976	-0.97942944	-0.67631916	1.89264760	-0.23214686	-0.53924692	0.04161032	0.81380207	-2.56556578	-2.35058288	-0.37130864	-0.28882797	0.16284315
4752	47.51000000	-0.01008245	0.22427066	-0.25972435	-0.06105411	-0.40777406	-0.78397833	-0.19689016	-0.66735650	-2.15603961	-0.32785417	0.68608366	1.51307791	0.44329774	-0.93663128	1.83012415	-0.15756541	-0.46432092	0.29005429	0.91015754	-2.86412778	-2.77828564	-0.30268619	-0.18844031	-0.01371217
4753	47.52000000	0.03804095	0.18158648	-0.29084084	-0.16627701	-0.42492304	-0.48469263	-0.34013147	-0.78741386	-2.16460505	-0.41996840	0.74347724	1.72851958	1.02348075	-0.18134672	1.55372214	-0.14840232	-0.29578922	0.72478052	0.87898373	-3.20459700	-3.19153912	-0.08514803	-0.18119483	-0.04634004
4754	47.53000000	0.04340649	0.17775437	-0.38006124	-0.31702836	-0.30539854	-0.22557999	-0.41212265	-0.92273679	-2.22073098	-0.70487024	0.79332809	1.90523758	1.10154918	-0.05106169	1.10739201	0.27654631	-0.33933767	0.98088767	0.50528197	-3.37741196	-3.48357591	-0.01670895	-0.17896202	-0.09081915
4755	47.54000000	-0.01515726	0.21647002	-0.44844327	-0.46735888	-0.12263123	-0.03197868	-0.33539962	-1.03792295	-2.16347233	-1.05385316	0.83816906	2.03475385	0.54984635	-0.42471541	0.81103162	0.67372018	-0.35331945	1.04249631	0.58393351	-3.39423876	-3.63844233	0.06529222	-0.19343588	-0.12808706
4756	47.55000000	-0.05891899	0.25213797	-0.44328858	-0.52202250	0.04986743	0.11594974	-0.14175032	-1.10180264	-1.96376174	-0.95619472	0.76957547	2.16294872	-0.04790804	-0.41368225	0.77257612	0.79570179	-0.30735887	1.15166237	0.40389475	-3.26375979	-3.63777119	0.09659984	-0.18102328	-0.13295261
4757	47.56000000	-0.12085101	0.26423627	-0.37950954	-0.48288842	0.16140855	0.21590967	-0.28793662	-1.16435995	-1.90857433	-0.97464586	0.94461848	2.23748430	-0.03210346	-0.21347682	0.54182694	0.84659626	-0.27098608	1.27751636	0.13997067	-3.15919023	-3.71192878	0.07833019	-0.17600752	-0.11918136
4758	47.57000000	-0.17451333	0.22970297	-0.29775873	-0.41922103	0.22097876	0.26360007	-0.68286757	-1.09193630	-1.90599861	-0.79324086	0.86703695	2.09511361	0.06757734	-0.23962902	0.33615083	0.76460087	-0.26262932	1.29936960	0.37768733	-2.71228908	-3.58160574	0.14345620	-0.14699094	-0.12377120
4759	47.58000000	-0.21106736	0.16856652	-0.22678466	-0.31423276	0.26041533	0.30683304	-1.09403330	-0.89821522	-1.76016236	-0.31275175	0.42427538	1.92516684	0.18985083	-0.23295447	0.40693391	0.54368853	-0.25791888	1.20790452	-0.42622571	-1.15113170	-2.57359180	0.16626246	-0.12351945	-0.11601890
4760	47.59000000	-0.24713857	0.10530524	-0.16543389	-0.16417352	0.30454774	0.38974430	-1.41747613	-0.73787703	-1.55188494	-0.07656552	0.21179007	1.85304392	0.36118660	-0.14572612	0.41745423	0.34337279	-0.22424840	1.10078036	-1.03944343	-0.35026017	-1.45736546	0.12032399	-0.12343496	-0.06539289
4761	47.60000000	-0.27463926	0.04118937	-0.12127988	-0.02368550	0.33735701	0.50380024	-1.84088579	-0.62793956	-1.21127677	-0.11159801	0.14378878	1.70664439	0.55563083	-0.16907569	0.25109341	0.21111525	-0.20908726	1.07456850	-1.05188149	-0.56270213	-0.64642364	0.05546785	-0.13075951	-0.02090988
4762	47.61000000	-0.27803947	-0.02206871	-0.09332866	0.11440041	0.35259423	0.61091970	-2.14310096	-0.49249972	-0.64883765	-0.09604704	0.06237068	1.49626384	0.62920012	-0.17583205	0.19775337	0.19247571	-0.17920114	1.09002327	-0.75676956	-0.32183757	0.06526120	0.02365054	-0.11357439	0.00806281
4763	47.62000000	-0.26489306	-0.07474326	-0.08112876	0.22230556	0.33684850	0.65496644	-1.32389508	-0.47082137	-0.16619994	0.13923988	0.06236403	1.38007838	0.62065538	-0.10584079	0.30182531	0.38403075	-0.13665842	1.05535158	-0.69202646	-0.03561816	0.66231546	0.03046371	-0.10044273	0.00938690
4764	47.63000000	-0.23476120	-0.12878510	-0.07358308	0.32239606	0.28236212	0.65726663	-0.27262884	-0.53770662	0.04358198	0.39848920	0.12785651	1.32748239	0.62198845	-0.07022795	0.33657910	0.64929755	-0.15040087	0.97030791	-0.83889717	0.08340076	1.15819609	0.02730795	-0.09486040	0.00464523
4765	47.64000000	-0.21830927	-0.16786281	-0.03157146	0.38799274	0.21664589	0.62146290	0.48002507	-0.56005112	0.25859304	0.55089335	0.15586795	1.32220407	0.58186172	-0.06891154	0.29881302	0.88425164	-0.19328996	0.89926507	-1.00397825	0.15840081	1.59674956	0.03660072	-0.08342923	-0.00048506
4766	47.65000000	-0.19046153	-0.20585945	0.01671289	0.40761299	0.17295443	0.54282151	0.89466800	-0.46121583	0.55542788	0.62281426	0.12855802	1.38859904	0.61607228	-0.04215026	0.34047259	1.05317759	-0.20534273	0.82480483	-1.11300979	0.26714735	2.02818890	0.04777094	-0.06290936	-0.00034199
4767	47.66000000	-0.16599903	-0.25145145	0.06039136	0.40955856	0.15084794	0.48369877	1.04662628	-0.32675174	0.84126465	0.64970345	0.07636451	1.46577708	0.60500712	-0.02674190	0.43908460	1.13991512	-0.16516156	0.73436410	-1.11596765	0.40345290	2.42781037	0.05447260	-0.03068663	0.00029938
4768	47.67000000	-0.13153940	-0.29343076	0.08853061	0.38245562	0.13769996	0.44957538	0.98295721	-0.21366589	1.08428911	0.72440162	0.01245878	1.48919820	0.54314753	-0.03075390	0.47400275	1.11989064	-0.10166994	0.65308350	-0.96019628	0.53918986	2.74235826	0.03328706	-0.01341175	0.01080348
4769	47.68000000	-0.09560603	-0.33830671	0.12692288	0.34669552	0.15440230	0.40925104	0.85770948	-0.08269431	1.30000895	0.87268891	-0.04776669	1.45173926	0.42600108	-0.02220335	0.46716021	1.00497600	-0.06267253	0.58502317	-0.72361151	0.72909190	2.94811360	0.02264763	0.00708715	0.01490608
4770	47.69000000	-0.05396597	-0.37860169	0.16111313	0.33186559	0.21369575	0.37552420	0.82733476	0.09231584	1.50268756	1.04734532	-0.07864622	1.32112793	0.33322418	-0.02534145	0.51094888	0.84953202	-0.02807831	0.55435336	-0.52162955	0.96793164	3.00086454	0.00678093	0.01800674	0.02943422
4771	47.70000000	0.00765304	-0.39925488	0.18756848	0.31235236	0.27052578	0.31454597	0.79848052	0.25805441	1.70472707	1.20622392	-0.10101028	1.23278138	0.26781327	-0.03085481	0.59529862	0.71253483	-0.01244935	0.53116580	-0.41076584	1.23034475	2.91155053	-0.01208625	0.04212822	0.04301204
4772	47.71000000	0.06388395	-0.41975997	0.20758618	0.28404537	0.27612941	0.25598301	0.75089403	0.40030349	1.91364022	1.28894044	-0.14825982	1.19981512	0.28568242	0.00815497	0.63659189	0.60609441	-0.02233223	0.47976564	-0.38782007	1.54765980	2.71445970	-0.04826728	0.01620747	0.07066967
4773	47.72000000	0.09718639	-0.43753585	0.22702880	0.27213437	0.25038985	0.20825540	0.73551137	0.52915260	2.15087796	1.32751109	-0.21451669	1.17565081	0.25014576	0.01373286	0.61660829	0.56971896	-0.01709578	0.41612354	-0.37934229	1.89223768	2.42691292	-0.07343522	0.00635610	0.08849159
4774	47.73000000	0.11234292	-0.45651232	0.22981599	0.27007537	0.21689345	0.15433582	0.63569819	0.62698965	2.38921067	1.35821693	-0.29067950	1.17080108	0.21468591	0.01926544	0.62106361	0.50960184	-0.01876613	0.38010770	-0.36414744	2.21999245	2.10462985	-0.07520958	-0.00238319	0.09311260
4775	47.74000000	0.12079842	-0.46863166	0.22391769	0.26833188	0.17514137	0.11444867	0.42970965	0.71153903	2.60185200	1.35800923	-0.36580674	1.13797568	0.16639185	0.01528470	0.68767300	0.43649919	-0.01975536	0.38239513	-0.37883976	2.54176946	1.82535614	-0.10850285	0.00287241	0.09302591
4776	47.75000000	0.09955194	-0.47790561	0.21931289	0.26720027	0.14842542	0.10718815	0.19839399	0.76469975	2.78901913	1.32783759	-0.44511957	1.04265014	0.15106857	0.02722388	0.68021194	0.40144865	-0.01097322	0.40420964	-0.45036064	2.84337215	1.62180881	-0.08633218	-0.00249364	0.08668772
4777	47.76000000	0.09907191	-0.47611930	0.20077586	0.26838790	0.14064490	0.11903069	-0.01266277	0.80853545	2.95802963	1.28773492	-0.52019501	0.98313550	0.15974097	0.03668512	0.66478963	0.34173782	-0.03087523	0.42329762	-0.55703767	3.08056493	1.49877073	-0.06537792	-0.00912539	0.08647125
4778	47.77000000	0.07184345	-0.47056857	0.20632846	0.26006344	0.14586241	0.14089021	-0.19710123	0.82308411	3.11559964	1.24582551	-0.54577020	0.90605525	0.15302319	0.04536476	0.66327346	0.26484110	-0.01134988	0.46588442	-0.67550816	3.24439582	1.43713440	-0.07001423	0.00161834	0.08153403
4779	47.78000000	0.05364449	-0.45470888	0.18638341	0.24243853	0.16166212	0.14475823	-0.31650201	0.81151508	3.26263220	1.16740816	-0.51588993	0.77895783	0.16462046	0.07781657	0.66440356	0.26342753	0.02143512	0.51311120	-0.78697716	3.35753449	1.42833495	-0.05961436	-0.00552469	0.09644508
4780	47.79000000	0.02935717	-0.43557873	0.17712457	0.23680129	0.18431264	0.14252577	-0.33528462	0.78764086	3.38726000	1.04958157	-0.46781472	0.65824757	0.21633401	0.07884547	0.64420747	0.27752320	0.02414135	0.52497265	-0.85770403	3.40287817	1.46554966	-0.06727055	-0.02777241	0.10929424
4781	47.80000000	0.01632792	-0.41491698	0.17143921	0.23689564	0.20549387	0.13836244	-0.27260608	0.73175452	3.50659690	0.89336009	-0.42060035	0.57720764	0.24366580	0.08427149	0.59873234	0.29126222	0.05556732	0.54936001	-0.85202936	3.37459470	1.54157566	-0.08326055	-0.04905987	0.11895475
4782	47.81000000	0.00090343	-0.39247959	0.17418909	0.24095178	0.22311711	0.13216034	-0.09674940	0.68472588	3.60784331	0.68601569	-0.38862445	0.46455478	0.26328507	0.09379024	0.59863521	0.34363733	0.10102115	0.58747244	-0.76821144	3.27929132	1.66466913	-0.06572999	-0.04765403	0.11378278
